<svg width="12" height="16" viewBox="0 0 12 16" fill="none" xmlns="http://www.w3.org/2000/svg">
<path d="M10.2094 5.72803H9.48022V4.26953C9.48022 2.25681 7.84671 0.623291 5.83398 0.623291C3.82126 0.623291 2.18775 2.25681 2.18775 4.26953V5.72803H1.4585C0.656323 5.72803 0 6.38435 0 7.18652V14.479C0 15.2812 0.656323 15.9375 1.4585 15.9375H10.2094C11.0116 15.9375 11.6679 15.2812 11.6679 14.479V7.18652C11.6679 6.38435 11.0116 5.72803 10.2094 5.72803ZM5.83398 12.2913C5.03181 12.2913 4.37549 11.6349 4.37549 10.8328C4.37549 10.0306 5.03181 9.37426 5.83398 9.37426C6.63616 9.37426 7.29248 10.0306 7.29248 10.8328C7.29248 11.6349 6.63616 12.2913 5.83398 12.2913ZM3.64624 5.72803V4.26953C3.64624 3.05898 4.62343 2.08179 5.83398 2.08179C7.04454 2.08179 8.02173 3.05898 8.02173 4.26953V5.72803H3.64624Z" fill="currentColor"/>
</svg>

