<svg width="18" height="18" viewBox="0 0 18 18" fill="none" xmlns="http://www.w3.org/2000/svg">
  <path d="M9.16985 3.56812C5.71551 3.56812 2.76551 5.71671 1.57031 8.74961C2.76551 11.7825 5.71551 13.9311 9.16985 13.9311C12.6241 13.9311 15.5742 11.7825 16.7694 8.74961C15.5742 5.71671 12.6241 3.56812 9.16985 3.56812ZM9.16985 12.204C7.26306 12.204 5.71551 10.6564 5.71551 8.74961C5.71551 6.84282 7.26306 5.29528 9.16985 5.29528C11.0766 5.29528 12.6241 6.84282 12.6241 8.74961C12.6241 10.6564 11.0766 12.204 9.16985 12.204ZM9.16985 6.67701C8.02301 6.67701 7.09725 7.60277 7.09725 8.74961C7.09725 9.89646 8.02301 10.8222 9.16985 10.8222C10.3167 10.8222 11.2425 9.89646 11.2425 8.74961C11.2425 7.60277 10.3167 6.67701 9.16985 6.67701Z" fill="currentColor"/>
</svg>